# xmcd
#
# Track frame offsets:
#	150
#	17233
#	37030
#
# Disc length: 755 seconds
#
# Revision: 3
# Processed by: cddbd v1.5.1PL0 Copyright (c) Steve Scherf et al.
# Submitted via: EasyCDDAExtractor 8.0.2.1
#
DISCID=1f02f103
DTITLE=Missy "Misdemanour" Elliot - Work It
DYEAR=2002
DGENRE=Hip-Hop
TTITLE0=Work It (Radio Edit)
TTITLE1=Work It (Album Version)
TTITLE2=Work It (Amended Version)
EXTD=
EXTT0=
EXTT1=
EXTT2=
PLAYORDER=
